<?xml version="1.0" encoding="UTF-8" standalone="no"?>
<!DOCTYPE svg PUBLIC "-//W3C//DTD SVG 1.1//EN"
 "http://www.w3.org/Graphics/SVG/1.1/DTD/svg11.dtd">
<!-- Generated by graphviz version 8.1.0 (0)
 -->
<!-- Title: G Pages: 1 -->
<svg width="2710pt" height="129pt"
 viewBox="0.00 0.00 2709.86 129.00" xmlns="http://www.w3.org/2000/svg" xmlns:xlink="http://www.w3.org/1999/xlink">
<g id="graph0" class="graph" transform="scale(1 1) rotate(0) translate(4 125)">
<title>G</title>
<polygon fill="white" stroke="none" points="-4,4 -4,-125 2705.86,-125 2705.86,4 -4,4"/>
<!-- 0x600002a74718 -->
<g id="node1" class="node">
<title>0x600002a74718</title>
<polygon fill="none" stroke="black" points="2542.36,-27.5 2542.36,-63.5 2701.86,-63.5 2701.86,-27.5 2542.36,-27.5"/>
<text text-anchor="middle" x="2600.98" y="-40.7" font-family="Times,serif" font-size="14.00">105553134485632</text>
<polyline fill="none" stroke="black" points="2659.61,-28 2659.61,-63.5"/>
<text text-anchor="middle" x="2680.73" y="-40.7" font-family="Times,serif" font-size="14.00">(1,1)</text>
</g>
<!-- 0x600002a74718_op -->
<g id="node2" class="node">
<title>0x600002a74718_op</title>
<ellipse fill="none" stroke="black" cx="2479.36" cy="-45.5" rx="27" ry="18"/>
<text text-anchor="middle" x="2479.36" y="-40.45" font-family="Times,serif" font-size="14.00">*</text>
</g>
<!-- 0x600002a74718_op&#45;&gt;0x600002a74718 -->
<g id="edge1" class="edge">
<title>0x600002a74718_op&#45;&gt;0x600002a74718</title>
<path fill="none" stroke="black" d="M2506.83,-45.5C2514.19,-45.5 2522.62,-45.5 2531.48,-45.5"/>
<polygon fill="black" stroke="black" points="2531.48,-49 2541.48,-45.5 2531.48,-42 2531.48,-49"/>
</g>
<!-- 0x600002a74638 -->
<g id="node3" class="node">
<title>0x600002a74638</title>
<polygon fill="none" stroke="black" points="2256.86,-55.5 2256.86,-91.5 2416.36,-91.5 2416.36,-55.5 2256.86,-55.5"/>
<text text-anchor="middle" x="2315.48" y="-68.7" font-family="Times,serif" font-size="14.00">105553134485584</text>
<polyline fill="none" stroke="black" points="2374.11,-56 2374.11,-91.5"/>
<text text-anchor="middle" x="2395.23" y="-68.7" font-family="Times,serif" font-size="14.00">(1,1)</text>
</g>
<!-- 0x600002a74638&#45;&gt;0x600002a74718_op -->
<g id="edge10" class="edge">
<title>0x600002a74638&#45;&gt;0x600002a74718_op</title>
<path fill="none" stroke="black" d="M2416.21,-57.86C2425.39,-56.04 2434.38,-54.25 2442.54,-52.62"/>
<polygon fill="black" stroke="black" points="2442.98,-55.91 2452.1,-50.52 2441.61,-49.04 2442.98,-55.91"/>
</g>
<!-- 0x600002a74638_op -->
<g id="node4" class="node">
<title>0x600002a74638_op</title>
<ellipse fill="none" stroke="black" cx="2178.72" cy="-73.5" rx="42.14" ry="18"/>
<text text-anchor="middle" x="2178.72" y="-68.45" font-family="Times,serif" font-size="14.00">mean(0)</text>
</g>
<!-- 0x600002a74638_op&#45;&gt;0x600002a74638 -->
<g id="edge2" class="edge">
<title>0x600002a74638_op&#45;&gt;0x600002a74638</title>
<path fill="none" stroke="black" d="M2221.08,-73.5C2228.97,-73.5 2237.5,-73.5 2246.23,-73.5"/>
<polygon fill="black" stroke="black" points="2245.95,-77 2255.95,-73.5 2245.95,-70 2245.95,-77"/>
</g>
<!-- 0x600002a740f8 -->
<g id="node5" class="node">
<title>0x600002a740f8</title>
<polygon fill="none" stroke="black" points="505,-56.5 505,-92.5 639,-92.5 639,-56.5 505,-56.5"/>
<text text-anchor="middle" x="530.62" y="-69.7" font-family="Times,serif" font-size="14.00">counts</text>
<polyline fill="none" stroke="black" points="556.25,-57 556.25,-92.5"/>
<text text-anchor="middle" x="597.62" y="-69.7" font-family="Times,serif" font-size="14.00">(228146,27)</text>
</g>
<!-- 0x600002a74398_op -->
<g id="node13" class="node">
<title>0x600002a74398_op</title>
<ellipse fill="none" stroke="black" cx="1321.27" cy="-73.5" rx="27" ry="18"/>
<text text-anchor="middle" x="1321.27" y="-68.45" font-family="Times,serif" font-size="14.00">*</text>
</g>
<!-- 0x600002a740f8&#45;&gt;0x600002a74398_op -->
<g id="edge14" class="edge">
<title>0x600002a740f8&#45;&gt;0x600002a74398_op</title>
<path fill="none" stroke="black" d="M638.94,-82.67C698.01,-89.28 787.06,-97.5 864.82,-97.5 864.82,-97.5 864.82,-97.5 1023.17,-97.5 1117.33,-97.5 1227.74,-85.37 1283.72,-78.36"/>
<polygon fill="black" stroke="black" points="1284.02,-81.72 1293.5,-76.99 1283.14,-74.78 1284.02,-81.72"/>
</g>
<!-- 0x600002a741d8_op -->
<g id="node18" class="node">
<title>0x600002a741d8_op</title>
<ellipse fill="none" stroke="black" cx="712.53" cy="-51.5" rx="37.53" ry="18"/>
<text text-anchor="middle" x="712.53" y="-46.45" font-family="Times,serif" font-size="14.00">sum(1)</text>
</g>
<!-- 0x600002a740f8&#45;&gt;0x600002a741d8_op -->
<g id="edge20" class="edge">
<title>0x600002a740f8&#45;&gt;0x600002a741d8_op</title>
<path fill="none" stroke="black" d="M638.62,-63.61C647.86,-62.07 657.19,-60.52 665.95,-59.07"/>
<polygon fill="black" stroke="black" points="666.39,-62.38 675.68,-57.29 665.25,-55.47 666.39,-62.38"/>
</g>
<!-- 0x600002a740f8_op -->
<g id="node6" class="node">
<title>0x600002a740f8_op</title>
<ellipse fill="none" stroke="black" cx="442" cy="-74.5" rx="27" ry="18"/>
<text text-anchor="middle" x="442" y="-69.45" font-family="Times,serif" font-size="14.00">exp</text>
</g>
<!-- 0x600002a740f8_op&#45;&gt;0x600002a740f8 -->
<g id="edge3" class="edge">
<title>0x600002a740f8_op&#45;&gt;0x600002a740f8</title>
<path fill="none" stroke="black" d="M469.21,-74.5C476.7,-74.5 485.26,-74.5 494.17,-74.5"/>
<polygon fill="black" stroke="black" points="494.16,-78 504.16,-74.5 494.16,-71 494.16,-78"/>
</g>
<!-- 0x600002a74558 -->
<g id="node7" class="node">
<title>0x600002a74558</title>
<polygon fill="none" stroke="black" points="1941.08,-55.5 1941.08,-91.5 2100.58,-91.5 2100.58,-55.5 1941.08,-55.5"/>
<text text-anchor="middle" x="1982.83" y="-68.7" font-family="Times,serif" font-size="14.00">5103976448</text>
<polyline fill="none" stroke="black" points="2024.58,-56 2024.58,-91.5"/>
<text text-anchor="middle" x="2062.58" y="-68.7" font-family="Times,serif" font-size="14.00">(228146,1)</text>
</g>
<!-- 0x600002a74558&#45;&gt;0x600002a74638_op -->
<g id="edge11" class="edge">
<title>0x600002a74558&#45;&gt;0x600002a74638_op</title>
<path fill="none" stroke="black" d="M2100.23,-73.5C2108.78,-73.5 2117.32,-73.5 2125.44,-73.5"/>
<polygon fill="black" stroke="black" points="2125.22,-77 2135.22,-73.5 2125.22,-70 2125.22,-77"/>
</g>
<!-- 0x600002a74558_op -->
<g id="node8" class="node">
<title>0x600002a74558_op</title>
<ellipse fill="none" stroke="black" cx="1873.17" cy="-73.5" rx="31.9" ry="18"/>
<text text-anchor="middle" x="1873.17" y="-68.45" font-family="Times,serif" font-size="14.00">select</text>
</g>
<!-- 0x600002a74558_op&#45;&gt;0x600002a74558 -->
<g id="edge4" class="edge">
<title>0x600002a74558_op&#45;&gt;0x600002a74558</title>
<path fill="none" stroke="black" d="M1905.42,-73.5C1913.03,-73.5 1921.54,-73.5 1930.41,-73.5"/>
<polygon fill="black" stroke="black" points="1930.35,-77 1940.35,-73.5 1930.35,-70 1930.35,-77"/>
</g>
<!-- 0x600002a70018 -->
<g id="node9" class="node">
<title>0x600002a70018</title>
<polygon fill="none" stroke="black" points="19.5,-84.5 19.5,-120.5 104.75,-120.5 104.75,-84.5 19.5,-84.5"/>
<text text-anchor="middle" x="34.25" y="-97.7" font-family="Times,serif" font-size="14.00">W</text>
<polyline fill="none" stroke="black" points="49,-85 49,-120.5"/>
<text text-anchor="middle" x="76.88" y="-97.7" font-family="Times,serif" font-size="14.00">(27,27)</text>
</g>
<!-- 0x600002a74018_op -->
<g id="node15" class="node">
<title>0x600002a74018_op</title>
<ellipse fill="none" stroke="black" cx="187.25" cy="-74.5" rx="27" ry="18"/>
<text text-anchor="middle" x="187.25" y="-69.45" font-family="Times,serif" font-size="14.00">@</text>
</g>
<!-- 0x600002a70018&#45;&gt;0x600002a74018_op -->
<g id="edge17" class="edge">
<title>0x600002a70018&#45;&gt;0x600002a74018_op</title>
<path fill="none" stroke="black" d="M104.47,-93.1C119.5,-89.68 136.34,-85.85 150.81,-82.56"/>
<polygon fill="black" stroke="black" points="151.38,-85.79 160.35,-80.16 149.82,-78.97 151.38,-85.79"/>
</g>
<!-- 0x600002a74478 -->
<g id="node10" class="node">
<title>0x600002a74478</title>
<polygon fill="none" stroke="black" points="1639.02,-55.5 1639.02,-91.5 1805.27,-91.5 1805.27,-55.5 1639.02,-55.5"/>
<text text-anchor="middle" x="1680.77" y="-68.7" font-family="Times,serif" font-size="14.00">4831838208</text>
<polyline fill="none" stroke="black" points="1722.52,-56 1722.52,-91.5"/>
<text text-anchor="middle" x="1763.9" y="-68.7" font-family="Times,serif" font-size="14.00">(228146,27)</text>
</g>
<!-- 0x600002a74478&#45;&gt;0x600002a74558_op -->
<g id="edge12" class="edge">
<title>0x600002a74478&#45;&gt;0x600002a74558_op</title>
<path fill="none" stroke="black" d="M1805.07,-73.5C1813.62,-73.5 1822.03,-73.5 1829.85,-73.5"/>
<polygon fill="black" stroke="black" points="1829.85,-77 1839.85,-73.5 1829.85,-70 1829.85,-77"/>
</g>
<!-- 0x600002a74478_op -->
<g id="node11" class="node">
<title>0x600002a74478_op</title>
<ellipse fill="none" stroke="black" cx="1576.02" cy="-73.5" rx="27" ry="18"/>
<text text-anchor="middle" x="1576.02" y="-68.45" font-family="Times,serif" font-size="14.00">log</text>
</g>
<!-- 0x600002a74478_op&#45;&gt;0x600002a74478 -->
<g id="edge5" class="edge">
<title>0x600002a74478_op&#45;&gt;0x600002a74478</title>
<path fill="none" stroke="black" d="M1603.46,-73.5C1610.87,-73.5 1619.39,-73.5 1628.37,-73.5"/>
<polygon fill="black" stroke="black" points="1628.09,-77 1638.09,-73.5 1628.09,-70 1628.09,-77"/>
</g>
<!-- 0x600002a74398 -->
<g id="node12" class="node">
<title>0x600002a74398</title>
<polygon fill="none" stroke="black" points="1384.27,-55.5 1384.27,-91.5 1513.02,-91.5 1513.02,-55.5 1384.27,-55.5"/>
<text text-anchor="middle" x="1407.27" y="-68.7" font-family="Times,serif" font-size="14.00">probs</text>
<polyline fill="none" stroke="black" points="1430.27,-56 1430.27,-91.5"/>
<text text-anchor="middle" x="1471.65" y="-68.7" font-family="Times,serif" font-size="14.00">(228146,27)</text>
</g>
<!-- 0x600002a74398&#45;&gt;0x600002a74478_op -->
<g id="edge13" class="edge">
<title>0x600002a74398&#45;&gt;0x600002a74478_op</title>
<path fill="none" stroke="black" d="M1512.7,-73.5C1521.32,-73.5 1529.93,-73.5 1537.88,-73.5"/>
<polygon fill="black" stroke="black" points="1537.62,-77 1547.62,-73.5 1537.62,-70 1537.62,-77"/>
</g>
<!-- 0x600002a74398_op&#45;&gt;0x600002a74398 -->
<g id="edge6" class="edge">
<title>0x600002a74398_op&#45;&gt;0x600002a74398</title>
<path fill="none" stroke="black" d="M1348.55,-73.5C1356.06,-73.5 1364.63,-73.5 1373.52,-73.5"/>
<polygon fill="black" stroke="black" points="1373.46,-77 1383.46,-73.5 1373.46,-70 1373.46,-77"/>
</g>
<!-- 0x600002a74018 -->
<g id="node14" class="node">
<title>0x600002a74018</title>
<polygon fill="none" stroke="black" points="250.25,-56.5 250.25,-92.5 379,-92.5 379,-56.5 250.25,-56.5"/>
<text text-anchor="middle" x="273.25" y="-69.7" font-family="Times,serif" font-size="14.00">logits</text>
<polyline fill="none" stroke="black" points="296.25,-57 296.25,-92.5"/>
<text text-anchor="middle" x="337.62" y="-69.7" font-family="Times,serif" font-size="14.00">(228146,27)</text>
</g>
<!-- 0x600002a74018&#45;&gt;0x600002a740f8_op -->
<g id="edge15" class="edge">
<title>0x600002a74018&#45;&gt;0x600002a740f8_op</title>
<path fill="none" stroke="black" d="M378.68,-74.5C387.3,-74.5 395.91,-74.5 403.86,-74.5"/>
<polygon fill="black" stroke="black" points="403.59,-78 413.59,-74.5 403.59,-71 403.59,-78"/>
</g>
<!-- 0x600002a74018_op&#45;&gt;0x600002a74018 -->
<g id="edge7" class="edge">
<title>0x600002a74018_op&#45;&gt;0x600002a74018</title>
<path fill="none" stroke="black" d="M214.53,-74.5C222.04,-74.5 230.61,-74.5 239.49,-74.5"/>
<polygon fill="black" stroke="black" points="239.44,-78 249.44,-74.5 239.44,-71 239.44,-78"/>
</g>
<!-- 0x600002a747f8 -->
<g id="node16" class="node">
<title>0x600002a747f8</title>
<polygon fill="none" stroke="black" points="2301.86,-0.5 2301.86,-36.5 2371.36,-36.5 2371.36,-0.5 2301.86,-0.5"/>
<text text-anchor="middle" x="2315.48" y="-13.7" font-family="Times,serif" font-size="14.00">&#45;1</text>
<polyline fill="none" stroke="black" points="2329.11,-1 2329.11,-36.5"/>
<text text-anchor="middle" x="2350.23" y="-13.7" font-family="Times,serif" font-size="14.00">(1,1)</text>
</g>
<!-- 0x600002a747f8&#45;&gt;0x600002a74718_op -->
<g id="edge21" class="edge">
<title>0x600002a747f8&#45;&gt;0x600002a74718_op</title>
<path fill="none" stroke="black" d="M2371.32,-24.97C2392.75,-29.08 2420.47,-34.4 2442.33,-38.59"/>
<polygon fill="black" stroke="black" points="2441.37,-42.16 2451.85,-40.61 2442.69,-35.29 2441.37,-42.16"/>
</g>
<!-- 0x600002a741d8 -->
<g id="node17" class="node">
<title>0x600002a741d8</title>
<polygon fill="none" stroke="black" points="786.07,-32.5 786.07,-68.5 945.57,-68.5 945.57,-32.5 786.07,-32.5"/>
<text text-anchor="middle" x="827.82" y="-45.7" font-family="Times,serif" font-size="14.00">5100306432</text>
<polyline fill="none" stroke="black" points="869.57,-33 869.57,-68.5"/>
<text text-anchor="middle" x="907.57" y="-45.7" font-family="Times,serif" font-size="14.00">(228146,1)</text>
</g>
<!-- 0x600002a742b8_op -->
<g id="node21" class="node">
<title>0x600002a742b8_op</title>
<ellipse fill="none" stroke="black" cx="1022.17" cy="-50.5" rx="40.6" ry="18"/>
<text text-anchor="middle" x="1022.17" y="-45.45" font-family="Times,serif" font-size="14.00">pow(&#45;1)</text>
</g>
<!-- 0x600002a741d8&#45;&gt;0x600002a742b8_op -->
<g id="edge19" class="edge">
<title>0x600002a741d8&#45;&gt;0x600002a742b8_op</title>
<path fill="none" stroke="black" d="M945.35,-50.5C953.95,-50.5 962.53,-50.5 970.66,-50.5"/>
<polygon fill="black" stroke="black" points="970.43,-54 980.43,-50.5 970.43,-47 970.43,-54"/>
</g>
<!-- 0x600002a741d8_op&#45;&gt;0x600002a741d8 -->
<g id="edge8" class="edge">
<title>0x600002a741d8_op&#45;&gt;0x600002a741d8</title>
<path fill="none" stroke="black" d="M750.54,-51.26C758.17,-51.2 766.51,-51.15 775.1,-51.09"/>
<polygon fill="black" stroke="black" points="775.11,-54.59 785.09,-51.02 775.07,-47.59 775.11,-54.59"/>
</g>
<!-- 0x600002a701d8 -->
<g id="node19" class="node">
<title>0x600002a701d8</title>
<polygon fill="none" stroke="black" points="0,-29.5 0,-65.5 124.25,-65.5 124.25,-29.5 0,-29.5"/>
<text text-anchor="middle" x="20.75" y="-42.7" font-family="Times,serif" font-size="14.00">xenc</text>
<polyline fill="none" stroke="black" points="41.5,-30 41.5,-65.5"/>
<text text-anchor="middle" x="82.88" y="-42.7" font-family="Times,serif" font-size="14.00">(228146,27)</text>
</g>
<!-- 0x600002a701d8&#45;&gt;0x600002a74018_op -->
<g id="edge16" class="edge">
<title>0x600002a701d8&#45;&gt;0x600002a74018_op</title>
<path fill="none" stroke="black" d="M123.97,-60.84C133.15,-62.86 142.35,-64.87 150.76,-66.72"/>
<polygon fill="black" stroke="black" points="149.77,-70.3 160.29,-69.03 151.27,-63.47 149.77,-70.3"/>
</g>
<!-- 0x600002a742b8 -->
<g id="node20" class="node">
<title>0x600002a742b8</title>
<polygon fill="none" stroke="black" points="1098.77,-32.5 1098.77,-68.5 1258.27,-68.5 1258.27,-32.5 1098.77,-32.5"/>
<text text-anchor="middle" x="1140.52" y="-45.7" font-family="Times,serif" font-size="14.00">5102141440</text>
<polyline fill="none" stroke="black" points="1182.27,-33 1182.27,-68.5"/>
<text text-anchor="middle" x="1220.27" y="-45.7" font-family="Times,serif" font-size="14.00">(228146,1)</text>
</g>
<!-- 0x600002a742b8&#45;&gt;0x600002a74398_op -->
<g id="edge18" class="edge">
<title>0x600002a742b8&#45;&gt;0x600002a74398_op</title>
<path fill="none" stroke="black" d="M1258.13,-63.34C1267.12,-64.81 1275.92,-66.25 1283.95,-67.56"/>
<polygon fill="black" stroke="black" points="1283.28,-71.17 1293.72,-69.32 1284.41,-64.26 1283.28,-71.17"/>
</g>
<!-- 0x600002a742b8_op&#45;&gt;0x600002a742b8 -->
<g id="edge9" class="edge">
<title>0x600002a742b8_op&#45;&gt;0x600002a742b8</title>
<path fill="none" stroke="black" d="M1062.92,-50.5C1070.79,-50.5 1079.35,-50.5 1088.13,-50.5"/>
<polygon fill="black" stroke="black" points="1087.91,-54 1097.91,-50.5 1087.91,-47 1087.91,-54"/>
</g>
</g>
</svg>
